<svg id="arg" xmlns="http://www.w3.org/2000/svg" xmlns:xlink="http://www.w3.org/1999/xlink" viewBox="0 0 99 98"><defs><style>.cls-1{fill:url(#linear-gradient);}.cls-2{fill:#06071b;}.cls-3,.cls-4{stroke:#000;stroke-miterlimit:10;stroke-width:2px;}.cls-4{fill:none;}</style><linearGradient id="linear-gradient" x1="820.76" y1="817.14" x2="820.76" y2="815.56" gradientTransform="matrix(99, 0, 0, -98, -81205.37, 80079.23)" gradientUnits="userSpaceOnUse"><stop offset="0" stop-color="#f59f62"/><stop offset="1" stop-color="#f4774a"/></linearGradient></defs><g id="arg-2" data-name="arg"><ellipse id="face" class="cls-1" cx="49.5" cy="49" rx="49.5" ry="49"/><ellipse id="ögon" class="cls-2" cx="64.5" cy="47" rx="6.5" ry="8"/><ellipse id="ögon-2" class="cls-2" cx="33" cy="47" rx="6" ry="8"/><path id="Path_807" data-name="Path 807" d="M1029.56,533a1.8,1.8,0,0,1-.93,1,8.2,8.2,0,0,1-5,1.57,10.51,10.51,0,0,1-3.95-1.1c-1.51-.85-2.71-1.69-4.22-2.54-2.11-1.18-4.94-3.7-5.92-5.91a24.7,24.7,0,0,1,17.14,3.3,6.81,6.81,0,0,1,2.68,2.77A1.46,1.46,0,0,1,1029.56,533Z" transform="translate(-985.71 -498.81)"/><path id="Path_808" data-name="Path 808" class="cls-3" d="M1048.22,571.7c-.79,2.37-4,2.6-6.09,1.67a21.09,21.09,0,0,0-16,0c-2.14.93-5.3.7-6.09-1.67-.79-3.94,3.75-4.6,7.7-5.68a27.87,27.87,0,0,1,6.31-.63h.18a27.87,27.87,0,0,1,6.31.64C1044.46,567.09,1049,567.76,1048.22,571.7Z" transform="translate(-985.71 -498.81)"/><path id="Path_809" data-name="Path 809" class="cls-4" d="M1033.33,571.79h.79" transform="translate(-985.71 -498.81)"/><path id="Path_810" data-name="Path 810" class="cls-4" d="M1034.12,571.79h.78" transform="translate(-985.71 -498.81)"/><path id="Path_811" data-name="Path 811" d="M1041.17,533a1.75,1.75,0,0,0,.92,1,8.2,8.2,0,0,0,5,1.57,10.46,10.46,0,0,0,4-1.1c1.51-.85,2.71-1.69,4.22-2.54,2.12-1.18,4.94-3.7,5.92-5.91a24.7,24.7,0,0,0-17.14,3.3,6.81,6.81,0,0,0-2.68,2.77A1.39,1.39,0,0,0,1041.17,533Z" transform="translate(-985.71 -498.81)"/></g></svg>