<svg id="exalterad" xmlns="http://www.w3.org/2000/svg" xmlns:xlink="http://www.w3.org/1999/xlink" viewBox="0 0 98 98"><defs><style>.cls-1{fill:none;}.cls-2{fill:url(#linear-gradient);}.cls-3,.cls-5,.cls-7{stroke:#000;stroke-miterlimit:10;}.cls-3,.cls-5{stroke-width:4px;}.cls-4{clip-path:url(#clip-path);}.cls-5{fill:#ca7de8;}.cls-6{clip-path:url(#clip-path-2);}.cls-7{fill:#fff;stroke-width:2px;}</style><linearGradient id="linear-gradient" x1="820.82" y1="816.56" x2="820.82" y2="814.32" gradientTransform="matrix(98, 0, 0, -98, -80391.17, 80023.32)" gradientUnits="userSpaceOnUse"><stop offset="0" stop-color="#f59f62"/><stop offset="1" stop-color="#f4774a"/></linearGradient><clipPath id="clip-path" transform="translate(-988.51 -554.72)"><ellipse class="cls-1" cx="1037.47" cy="630.96" rx="20.11" ry="8.28"/></clipPath><clipPath id="clip-path-2" transform="translate(-988.51 -554.72)"><rect class="cls-1" x="1007.11" y="604.54" width="60.72" height="10.25"/></clipPath></defs><g id="exalterad-2" data-name="exalterad"><circle id="face" class="cls-2" cx="49" cy="49" r="49"/><path id="Path_815" data-name="Path 815" class="cls-3" d="M1009.47,614c0,11.75,11.63,21.27,28,21.27s28-9.52,28-21.27-11.63-10.28-28-10.28S1009.47,602.27,1009.47,614Z" transform="translate(-988.51 -554.72)"/><g id="Group_433" data-name="Group 433"><g class="cls-4"><g id="Group_432" data-name="Group 432"><path id="Path_816" data-name="Path 816" class="cls-5" d="M1009.9,614c0,11.75,11.62,21.27,28,21.27s28-9.52,28-21.27-11.63-10.28-28-10.28S1009.9,602.27,1009.9,614Z" transform="translate(-988.51 -554.72)"/></g></g></g><g id="tänder"><g class="cls-6"><g id="Group_434" data-name="Group 434"><path id="Path_817" data-name="Path 817" class="cls-7" d="M1009.16,614c0,11.75,11.79,21.28,28.39,21.28s28.39-9.53,28.39-21.28-11.79-10.27-28.39-10.27S1009.16,602.27,1009.16,614Z" transform="translate(-988.51 -554.72)"/></g></g></g><path id="Path_818" data-name="Path 818" d="M1010.74,596.47,1021,586.22l-9.46-9.47L1032.82,587Z" transform="translate(-988.51 -554.72)"/><path id="Path_819" data-name="Path 819" d="M1064.37,596.47l-10.25-10.25,9.46-9.47L1042.29,587Z" transform="translate(-988.51 -554.72)"/></g></svg>