<svg id="glad" xmlns="http://www.w3.org/2000/svg" xmlns:xlink="http://www.w3.org/1999/xlink" viewBox="0 0 99 98"><defs><style>.cls-1{fill:none;}.cls-2{fill:url(#linear-gradient);}.cls-3{fill:#06071b;}.cls-4,.cls-6,.cls-8{stroke:#000;stroke-miterlimit:10;}.cls-4,.cls-6{stroke-width:4px;}.cls-5{clip-path:url(#clip-path);}.cls-6{fill:#ca7de8;}.cls-7{clip-path:url(#clip-path-2);}.cls-8{fill:#fff;stroke-width:2px;}</style><linearGradient id="linear-gradient" x1="819.83" y1="817.24" x2="819.83" y2="815.27" gradientTransform="matrix(99, 0, 0, -98, -81113.31, 80089.95)" gradientUnits="userSpaceOnUse"><stop offset="0" stop-color="#f59f62"/><stop offset="1" stop-color="#f4774a"/></linearGradient><clipPath id="clip-path" transform="translate(-893.65 -488.09)"><ellipse class="cls-1" cx="943.94" cy="568.47" rx="20.11" ry="8.28"/></clipPath><clipPath id="clip-path-2" transform="translate(-893.65 -488.09)"><rect class="cls-1" x="913.58" y="542.05" width="60.72" height="10.25"/></clipPath></defs><g id="glad-2" data-name="glad"><ellipse id="face" class="cls-2" cx="49.5" cy="49" rx="49.5" ry="49"/><ellipse id="ögon" class="cls-3" cx="33.08" cy="37.41" rx="6.31" ry="7.89"/><ellipse id="ögon-2" class="cls-3" cx="64.63" cy="37.41" rx="6.31" ry="7.89"/><path id="Path_784" data-name="Path 784" class="cls-4" d="M915.94,551.53c0,11.75,11.63,21.28,28,21.28s28-9.53,28-21.28-11.63-10.27-28-10.27S915.94,539.78,915.94,551.53Z" transform="translate(-893.65 -488.09)"/><g id="Group_421" data-name="Group 421"><g class="cls-5"><g id="Group_420" data-name="Group 420"><path id="Path_785" data-name="Path 785" class="cls-6" d="M916.36,551.53c0,11.75,11.63,21.28,28,21.28s28-9.53,28-21.28-11.62-10.27-28-10.27S916.36,539.78,916.36,551.53Z" transform="translate(-893.65 -488.09)"/></g></g></g><g id="tänder"><g class="cls-7"><g id="Group_422" data-name="Group 422"><path id="Path_786" data-name="Path 786" class="cls-8" d="M915.62,551.53c0,11.75,11.79,21.28,28.39,21.28s28.39-9.53,28.39-21.28S960.62,541.26,944,541.26,915.62,539.78,915.62,551.53Z" transform="translate(-893.65 -488.09)"/></g></g></g></g></svg>