<svg id="ledsen" xmlns="http://www.w3.org/2000/svg" xmlns:xlink="http://www.w3.org/1999/xlink" viewBox="0 0 99 98"><defs><style>.cls-1{fill:none;}.cls-2{fill:url(#linear-gradient);}.cls-3,.cls-4{fill:#fff;}.cls-3{opacity:0.9;isolation:isolate;}.cls-5{clip-path:url(#clip-path);}.cls-6{clip-path:url(#clip-path-2);}.cls-7{fill:url(#linear-gradient-2);}</style><linearGradient id="linear-gradient" x1="819.89" y1="817.76" x2="819.89" y2="815.52" gradientTransform="matrix(99, 0, 0, -98, -81119.59, 80140.51)" gradientUnits="userSpaceOnUse"><stop offset="0" stop-color="#f59f62"/><stop offset="1" stop-color="#f4774a"/></linearGradient><clipPath id="clip-path" transform="translate(-899.93 -437.53)"><circle class="cls-1" cx="932.63" cy="486.77" r="3.55"/></clipPath><clipPath id="clip-path-2" transform="translate(-899.93 -437.53)"><circle class="cls-1" cx="966.54" cy="486.77" r="3.55"/></clipPath><linearGradient id="linear-gradient-2" x1="837.5" y1="807.22" x2="837.5" y2="806.22" gradientTransform="matrix(11.83, 0, 0, -23.04, -8984.51, 19088.82)" gradientUnits="userSpaceOnUse"><stop offset="0" stop-color="#d7e4f5"/><stop offset="1" stop-color="#5652d5"/></linearGradient></defs><g id="Ledsen-2" data-name="Ledsen"><ellipse id="face" class="cls-2" cx="49.5" cy="49" rx="49.5" ry="49"/><g id="eye"><circle id="Ellipse_443" data-name="Ellipse 443" class="cls-3" cx="31.12" cy="43.71" r="10.65"/><circle id="Ellipse_444" data-name="Ellipse 444" cx="31.12" cy="43.71" r="7.49"/><circle id="Ellipse_445" data-name="Ellipse 445" class="cls-4" cx="27.97" cy="43.72" r="1.97"/><g id="Group_424" data-name="Group 424"><g class="cls-5"><g id="Group_423" data-name="Group 423"><circle id="Ellipse_446" data-name="Ellipse 446" class="cls-4" cx="31.13" cy="43.72" r="7.49"/></g></g></g></g><g id="eye-2"><circle id="Ellipse_448" data-name="Ellipse 448" class="cls-3" cx="65.04" cy="43.71" r="10.65"/><circle id="Ellipse_449" data-name="Ellipse 449" cx="65.04" cy="43.71" r="7.49"/><circle id="Ellipse_450" data-name="Ellipse 450" class="cls-4" cx="61.88" cy="43.72" r="1.97"/><g id="Group_426" data-name="Group 426"><g class="cls-6"><g id="Group_425" data-name="Group 425"><circle id="Ellipse_451" data-name="Ellipse 451" class="cls-4" cx="65.04" cy="43.72" r="7.49"/></g></g></g></g><path id="Path_787" data-name="Path 787" d="M930.6,459.39a3,3,0,0,1-.87,1.28,20.31,20.31,0,0,1-5,4.2,16.38,16.38,0,0,1-2.8,1.34,27.54,27.54,0,0,1-8.23,1.63c.4-3,2.9-5.66,5.24-7.36a20.52,20.52,0,0,1,7.89-3.52,4.06,4.06,0,0,1,2.6.11A2.11,2.11,0,0,1,930.6,459.39Z" transform="translate(-899.93 -437.53)"/><path id="Path_788" data-name="Path 788" d="M929,459.39a3,3,0,0,1-.86,1.28,20.49,20.49,0,0,1-5,4.2,17.13,17.13,0,0,1-2.8,1.34,27.66,27.66,0,0,1-8.24,1.63c.4-3,2.9-5.66,5.24-7.36a20.52,20.52,0,0,1,7.89-3.52,4.06,4.06,0,0,1,2.6.11A2.11,2.11,0,0,1,929,459.39Z" transform="translate(-899.93 -437.53)"/><path id="Path_789" data-name="Path 789" d="M933.81,514.76c0,6.32,6.93-5.12,15-5.12s14.2,11.44,14.2,5.12-6.54-11.43-14.6-11.43S933.81,508.45,933.81,514.76Z" transform="translate(-899.93 -437.53)"/><path id="Path_790" data-name="Path 790" class="cls-7" d="M917.25,509.7c0,4.36,2.65,7.91,5.92,7.91s5.91-3.55,5.91-7.91c0-8.29-4.36-13.88-5-14.39a3.94,3.94,0,0,1-.61-.74,5.29,5.29,0,0,1-.66.76A21.43,21.43,0,0,0,917.25,509.7Z" transform="translate(-899.93 -437.53)"/><path id="Path_794" data-name="Path 794" d="M967.39,459.39a3,3,0,0,0,.86,1.28,20.49,20.49,0,0,0,5,4.2,17.13,17.13,0,0,0,2.8,1.34,27.66,27.66,0,0,0,8.24,1.63c-.4-3-2.9-5.66-5.24-7.36a20.52,20.52,0,0,0-7.89-3.52,4.06,4.06,0,0,0-2.6.11A2.11,2.11,0,0,0,967.39,459.39Z" transform="translate(-899.93 -437.53)"/></g></svg>