<svg id="stressad" xmlns="http://www.w3.org/2000/svg" xmlns:xlink="http://www.w3.org/1999/xlink" viewBox="0 0 99 98"><defs><style>.cls-1{fill:none;}.cls-2{fill:url(#linear-gradient);}.cls-3,.cls-4{fill:#06071b;}.cls-4,.cls-6{stroke:#000;stroke-miterlimit:10;stroke-width:3px;}.cls-5{clip-path:url(#clip-path);}.cls-6{fill:#fff;}.cls-7{clip-path:url(#clip-path-2);}.cls-8{fill:#ca7de8;}</style><linearGradient id="linear-gradient" x1="820.76" y1="817.14" x2="820.76" y2="815.04" gradientTransform="matrix(99, 0, 0, -98, -81205.37, 80079.23)" gradientUnits="userSpaceOnUse"><stop offset="0" stop-color="#f59f62"/><stop offset="1" stop-color="#f4774a"/></linearGradient><clipPath id="clip-path" transform="translate(-985.71 -498.81)"><rect class="cls-1" x="1007.71" y="551.81" width="52" height="11"/></clipPath><clipPath id="clip-path-2" transform="translate(-985.71 -498.81)"><path class="cls-1" d="M1052.11,557.81c-6-3.23-13.55-3.53-17.67-3.43v0c-5.92.1-11.83,0-17,2.88-2.16,1.2-5.92,3.61-6.7,8.19-.72,4.19,3.8,8.58,6.31,9.93,6,3.22,13.55,3.53,17.66,3.42v0c5.93-.1,11.84,0,17-2.87,2.16-1.2,5.91-3.61,6.7-8.2C1059.14,563.54,1054.62,559.16,1052.11,557.81Z"/></clipPath></defs><g id="Stressad-2" data-name="Stressad"><ellipse id="face" class="cls-2" cx="49.5" cy="49" rx="49.5" ry="49"/><path id="Path_797" data-name="Path 797" d="M1020.09,517a3,3,0,0,1-1,1.17,20.65,20.65,0,0,1-5.45,3.58,15.89,15.89,0,0,1-2.94,1,28,28,0,0,1-8.37.66c.75-3,3.55-5.28,6.08-6.7a20.45,20.45,0,0,1,8.24-2.56,4,4,0,0,1,2.57.42A2.11,2.11,0,0,1,1020.09,517Z" transform="translate(-985.71 -498.81)"/><ellipse id="ögon" class="cls-3" cx="32.5" cy="39" rx="6.5" ry="8"/><ellipse id="ögon-2" class="cls-3" cx="64" cy="39" rx="6" ry="8"/><path id="Path_798" data-name="Path 798" class="cls-4" d="M1052.11,557.81c-6-3.22-13.55-3.53-17.67-3.43h0c-5.92.1-11.83,0-17,2.87-2.16,1.2-5.92,3.61-6.7,8.19-.72,4.19,3.8,8.58,6.31,9.93,6,3.22,13.55,3.53,17.66,3.42v0c5.93-.1,11.84,0,17-2.87,2.16-1.2,5.91-3.61,6.7-8.19C1059.14,563.54,1054.62,559.16,1052.11,557.81Z" transform="translate(-985.71 -498.81)"/><g id="Group_428" data-name="Group 428"><g class="cls-5"><g id="Group_427" data-name="Group 427"><path id="Path_799" data-name="Path 799" class="cls-6" d="M1052.11,557.81c-6-3.22-13.55-3.53-17.67-3.43h0c-5.92.1-11.83,0-17,2.87-2.16,1.2-5.92,3.61-6.7,8.19-.72,4.19,3.8,8.58,6.31,9.93,6,3.22,13.55,3.53,17.66,3.42v0c5.93-.1,11.84,0,17-2.87,2.16-1.2,5.91-3.61,6.7-8.19C1059.14,563.54,1054.62,559.16,1052.11,557.81Z" transform="translate(-985.71 -498.81)"/></g></g></g><g id="Group_430" data-name="Group 430"><g class="cls-7"><g id="Group_429" data-name="Group 429"><path id="Path_800" data-name="Path 800" class="cls-8" d="M1053.77,576.74c-.19.72-.24,1.23-.87,1.53a6.6,6.6,0,0,1-2,.5c-3.91.55-7.83,1.1-11.77,1.32-2.05.11-4.1.13-6.16.12a39.54,39.54,0,0,1-16.27-3.47c1.92-2.36,3.61-5.14,6.42-5.9a10.05,10.05,0,0,1,4.05-.19,15.23,15.23,0,0,1,5.33,1.72.92.92,0,0,0,.48.16.88.88,0,0,0,.46-.26c1.91-1.57,4.47-1.86,6.87-1.85a21.67,21.67,0,0,1,7.4,1.17A14.35,14.35,0,0,1,1053.77,576.74Z" transform="translate(-985.71 -498.81)"/></g></g></g><path id="Path_802" data-name="Path 802" d="M1049.75,517a3.08,3.08,0,0,0,1,1.17,21,21,0,0,0,5.45,3.58,16.14,16.14,0,0,0,2.94,1,28.06,28.06,0,0,0,8.37.66c-.75-3-3.54-5.28-6.07-6.7a20.55,20.55,0,0,0-8.25-2.56,4,4,0,0,0-2.57.42A2.12,2.12,0,0,0,1049.75,517Z" transform="translate(-985.71 -498.81)"/></g></svg>