<svg id="uttråkad" xmlns="http://www.w3.org/2000/svg" xmlns:xlink="http://www.w3.org/1999/xlink" viewBox="0 0 98 98"><defs><style>.cls-1{fill:url(#linear-gradient);}</style><linearGradient id="linear-gradient" x1="819.89" y1="817.81" x2="819.89" y2="815.89" gradientTransform="matrix(98, 0, 0, -98, -80300.02, 80145.1)" gradientUnits="userSpaceOnUse"><stop offset="0" stop-color="#f59f62"/><stop offset="1" stop-color="#f4774a"/></linearGradient></defs><g id="uttråkad-2" data-name="uttråkad"><circle id="face" class="cls-1" cx="49" cy="49" r="49"/><path id="Path_791" data-name="Path 791" d="M934.76,470.43c-4.48-1.27-7.8-1.2-12.74.54a27.56,27.56,0,0,0-6.33,3.61,18.18,18.18,0,0,0-3.63,4.51c5.22-1.3,10.21-2.87,15.14-3.45a6.7,6.7,0,1,0,7.95-5.14l-.39-.07Z" transform="translate(-897.36 -432.94)"/><path id="Path_792" data-name="Path 792" d="M975.77,470.43c-4.49-1.27-7.8-1.2-12.74.54a27.84,27.84,0,0,0-6.34,3.61,18.37,18.37,0,0,0-3.62,4.51c5.22-1.3,10.21-2.87,15.13-3.45a6.7,6.7,0,1,0,8-5.14l-.39-.07Z" transform="translate(-897.36 -432.94)"/><path id="Path_793" data-name="Path 793" d="M968.05,502.39a1,1,0,0,1,0,.34,2.19,2.19,0,0,1-2.13,1.52h-8.11c-1.85-.08-5.62,0-7.47,0-2.67,0-5-.05-7.48.94-1.57.63-3.12,1.13-4.67,1.87a32.47,32.47,0,0,0-5.55,3.32,54.82,54.82,0,0,1,8.87-7.28,21,21,0,0,1,6.86-3.22,25.56,25.56,0,0,1,6.71-.28c3.81.17,7.47-.11,11.14.92C967.94,501,968.05,501.45,968.05,502.39Z" transform="translate(-897.36 -432.94)"/></g></svg>