<svg id="bubbla" xmlns="http://www.w3.org/2000/svg" xmlns:xlink="http://www.w3.org/1999/xlink" viewBox="0 0 589.93 397.57"><defs><style>.cls-1{opacity:0.6;}.cls-2{fill:url(#linear-gradient);}.cls-3{fill:url(#linear-gradient-2);}.cls-4{fill:url(#linear-gradient-3);}.cls-5{fill:url(#linear-gradient-4);}.cls-6{fill:url(#linear-gradient-5);}</style><linearGradient id="linear-gradient" x1="931.52" y1="570.51" x2="931.52" y2="569.51" gradientTransform="matrix(542.31, 0, 0, -397.57, -504234.76, 227157.68)" gradientUnits="userSpaceOnUse"><stop offset="0" stop-color="#fff"/><stop offset="1" stop-color="#e5edfc"/></linearGradient><linearGradient id="linear-gradient-2" x1="931.67" y1="565.16" x2="931.67" y2="564.16" gradientTransform="matrix(57.49, 0, 0, -33.63, -52816.04, 19596.6)" xlink:href="#linear-gradient"/><linearGradient id="linear-gradient-3" x1="931.8" y1="565.16" x2="931.8" y2="564.16" gradientTransform="matrix(33.63, 0, 0, -33.63, -30204.34, 19391.36)" xlink:href="#linear-gradient"/><linearGradient id="linear-gradient-4" x1="931.8" y1="565.16" x2="931.8" y2="564.16" gradientTransform="matrix(33.63, 0, 0, -33.63, -30639.49, 19387.4)" xlink:href="#linear-gradient"/><linearGradient id="linear-gradient-5" x1="931.67" y1="566.28" x2="931.67" y2="565.28" gradientTransform="matrix(57.36, 0, 0, -41.54, -52215.53, 24074.76)" xlink:href="#linear-gradient"/></defs><g id="bg_rund" data-name="bg rund" class="cls-1"><path id="Path_5545" data-name="Path 5545" class="cls-2" d="M1186.72,618.62h-81.8a177.06,177.06,0,0,0,13.33-23.73h48.2a20.78,20.78,0,0,0,20.77-20.77h0a20.77,20.77,0,0,0-20.77-20.77h-34.81A178.53,178.53,0,0,0,845.46,379.79H756a20.76,20.76,0,0,0-20.77,20.76h0A20.77,20.77,0,0,0,756,421.32h51.31a177.4,177.4,0,0,0-13.45,24.23H685.81A20.77,20.77,0,0,0,665,466.32h0a20.77,20.77,0,0,0,20.77,20.77h95a178.82,178.82,0,0,0,68.73,175.69C782,669.7,736.24,683,736.24,698.24c0,22.39,98.52,40.55,220,40.55s220-18.16,220-40.55c0-15.26-45.71-28.54-113.26-35.46,1.15-.86,2.29-1.74,3.42-2.62h120.22a20.77,20.77,0,0,0,0-41.54Z" transform="translate(-665.04 -341.21)"/><path id="Path_5546" data-name="Path 5546" class="cls-3" d="M775.31,609.23a16.81,16.81,0,0,0-16.81-16.81H734.76A16.81,16.81,0,1,0,734.5,626h24a16.82,16.82,0,0,0,16.81-16.81Z" transform="translate(-665.04 -341.21)"/><path id="Rectangle_1289" data-name="Rectangle 1289" class="cls-4" d="M1127.38,387.7h0a16.81,16.81,0,0,1,16.82,16.81h0a16.82,16.82,0,0,1-16.82,16.81h0a16.82,16.82,0,0,1-16.81-16.81h0A16.81,16.81,0,0,1,1127.38,387.7Z" transform="translate(-665.04 -341.21)"/><path id="Rectangle_1290" data-name="Rectangle 1290" class="cls-5" d="M692.23,383.74h0a16.82,16.82,0,0,1,16.82,16.81h0a16.82,16.82,0,0,1-16.82,16.82h0a16.82,16.82,0,0,1-16.81-16.82h0A16.82,16.82,0,0,1,692.23,383.74Z" transform="translate(-665.04 -341.21)"/><path id="Rectangle_1291" data-name="Rectangle 1291" class="cls-6" d="M1218.37,553.35h15.82A20.77,20.77,0,0,1,1255,574.12h0a20.77,20.77,0,0,1-20.77,20.77h-15.82a20.77,20.77,0,0,1-20.77-20.77h0A20.77,20.77,0,0,1,1218.37,553.35Z" transform="translate(-665.04 -341.21)"/></g></svg>